<svg xmlns="http://www.w3.org/2000/svg" width="900" height="76" viewBox="0 0 900 76">
<defs><filter id="iconGlow" x="-100%" y="-100%" width="300%" height="300%"><feGaussianBlur stdDeviation="2.3" result="blur"/><feFlood flood-color="#ff2d2d" flood-opacity=".95"/><feComposite in2="blur" operator="in"/><feMerge><feMergeNode/><feMergeNode in="SourceGraphic"/></feMerge></filter></defs>
<g>
  <g transform="translate(12 12)"><rect width="76" height="52" rx="10" fill="#101010" stroke="#343434"/><g transform="translate(26 14)" fill="none" stroke="#ff3535" stroke-width="2" filter="url(#iconGlow)"><path d="M0 0 H10 V10 H0 Z M13 0 H23 V10 H13 Z M0 13 H10 V23 H0 Z M13 13 H23 V23 H13 Z"/></g></g>
  <g transform="translate(109 12)"><rect width="76" height="52" rx="10" fill="#101010" stroke="#343434"/><g transform="translate(25 13)" fill="none" stroke="#ff3535" stroke-width="2" stroke-linejoin="round" filter="url(#iconGlow)"><path d="M0 3 L13 0 L26 3 V23 L13 26 L0 23 Z"/><path d="M0 3 L13 7 L26 3 M13 7 V26"/></g></g>
  <g transform="translate(206 12)"><rect width="76" height="52" rx="10" fill="#101010" stroke="#343434"/><text x="38" y="34" fill="#ff3b3b" filter="url(#iconGlow)" font-family="Arial,sans-serif" font-size="21" font-weight="700" text-anchor="middle">C++</text></g>
  <g transform="translate(303 12)"><rect width="76" height="52" rx="10" fill="#101010" stroke="#343434"/><text x="38" y="34" fill="#ff3b3b" filter="url(#iconGlow)" font-family="Arial,sans-serif" font-size="22" font-weight="700" text-anchor="middle">JS</text></g>
  <g transform="translate(400 12)"><rect width="76" height="52" rx="10" fill="#101010" stroke="#343434"/><g transform="translate(25 9)" filter="url(#iconGlow)" stroke="#ff3535" stroke-width="1.8" stroke-linejoin="round"><path d="M1 2 H25 L22 29 L13 33 L4 29 Z" fill="#ff3535" fill-opacity=".12"/><path d="M6 9 H20 M7 15 H19 M8 21 H17" fill="none"/></g></g>
  <g transform="translate(497 12)"><rect width="76" height="52" rx="10" fill="#101010" stroke="#343434"/><g transform="translate(25 9)" filter="url(#iconGlow)" stroke="#ff3535" stroke-width="1.8" stroke-linejoin="round"><path d="M1 2 H25 L22 29 L13 33 L4 29 Z" fill="#ff3535" fill-opacity=".12"/><path d="M5 9 H21 M7 15 H19 M9 21 H17" fill="none"/></g></g>
  <g transform="translate(594 12)"><rect width="76" height="52" rx="10" fill="#101010" stroke="#343434"/><path d="M21 34 H49 A8 8 0 0 0 49 18 A13 13 0 0 0 25 16 A9 9 0 0 0 21 34Z" fill="none" stroke="#ff3535" stroke-width="2.2" filter="url(#iconGlow)"/></g>
  <g transform="translate(691 12)"><rect width="76" height="52" rx="10" fill="#101010" stroke="#343434"/><g transform="translate(26 12)" fill="none" stroke="#ff3535" stroke-width="2.2" stroke-linecap="round" filter="url(#iconGlow)"><circle cx="12" cy="4" r="3"/><circle cx="3" cy="23" r="3"/><circle cx="21" cy="23" r="3"/><path d="M12 7 V14 L3 20 M12 14 L21 20"/></g></g>
  <g transform="translate(788 12)"><rect width="76" height="52" rx="10" fill="#101010" stroke="#343434"/><g transform="translate(23 11)" fill="none" stroke="#ff3535" stroke-width="2" stroke-linecap="round" stroke-linejoin="round" filter="url(#iconGlow)"><path d="M8 27 C-2 29 -2 20 2 16 C-1 7 5 1 13 2 C22 1 27 8 24 16 C29 23 23 29 16 27 L16 21 H8 Z"/><path d="M8 27 V21 H16 V27 M8 12 H8.1 M17 12 H17.1"/></g></g>
</g></svg>